<svg id="visual" viewBox="0 0 900 600" width="900" height="600" xmlns="http://www.w3.org/2000/svg" xmlns:xlink="http://www.w3.org/1999/xlink" version="1.1"><g stroke-width="1" stroke-linejoin="bevel"><path d="M481 318L405 317L406 427Z" fill="#081a28" stroke="#081a28"></path><path d="M406 427L486 438L481 318Z" fill="#00101c" stroke="#00101c"></path><path d="M405 199L328 283L405 317Z" fill="#112e42" stroke="#112e42"></path><path d="M405 317L289 433L406 427Z" fill="#112e42" stroke="#112e42"></path><path d="M486 438L601 338L481 318Z" fill="#19435d" stroke="#19435d"></path><path d="M481 318L405 199L405 317Z" fill="#00101c" stroke="#00101c"></path><path d="M328 283L289 433L405 317Z" fill="#112e42" stroke="#112e42"></path><path d="M406 427L375 523L486 438Z" fill="#277297" stroke="#277297"></path><path d="M289 433L375 523L406 427Z" fill="#112e42" stroke="#112e42"></path><path d="M375 523L498 531L486 438Z" fill="#0c2435" stroke="#0c2435"></path><path d="M486 438L611 360L601 338Z" fill="#205a7a" stroke="#205a7a"></path><path d="M602 495L611 360L486 438Z" fill="#19435d" stroke="#19435d"></path><path d="M483 189L405 199L481 318Z" fill="#1d4e6b" stroke="#1d4e6b"></path><path d="M601 338L483 189L481 318Z" fill="#112e42" stroke="#112e42"></path><path d="M498 531L602 495L486 438Z" fill="#15384f" stroke="#15384f"></path><path d="M375 523L466 600L498 531Z" fill="#0c2435" stroke="#0c2435"></path><path d="M498 531L596 600L602 495Z" fill="#277297" stroke="#277297"></path><path d="M270 600L404 600L375 523Z" fill="#00101c" stroke="#00101c"></path><path d="M375 523L404 600L466 600Z" fill="#1d4e6b" stroke="#1d4e6b"></path><path d="M260 219L228 273L328 283Z" fill="#277297" stroke="#277297"></path><path d="M328 283L228 273L289 433Z" fill="#246688" stroke="#246688"></path><path d="M289 433L262 525L375 523Z" fill="#15384f" stroke="#15384f"></path><path d="M204 409L262 525L289 433Z" fill="#112e42" stroke="#112e42"></path><path d="M405 199L260 219L328 283Z" fill="#297ea6" stroke="#297ea6"></path><path d="M228 273L204 409L289 433Z" fill="#205a7a" stroke="#205a7a"></path><path d="M470 89L427 113L483 189Z" fill="#297ea6" stroke="#297ea6"></path><path d="M483 189L427 113L405 199Z" fill="#277297" stroke="#277297"></path><path d="M405 199L279 89L260 219Z" fill="#297ea6" stroke="#297ea6"></path><path d="M279 89L239 208L260 219Z" fill="#19435d" stroke="#19435d"></path><path d="M260 219L239 208L228 273Z" fill="#277297" stroke="#277297"></path><path d="M102 323L120 429L204 409Z" fill="#246688" stroke="#246688"></path><path d="M466 600L596 600L498 531Z" fill="#297ea6" stroke="#297ea6"></path><path d="M696 206L601 338L733 274Z" fill="#112e42" stroke="#112e42"></path><path d="M696 206L636 169L601 338Z" fill="#15384f" stroke="#15384f"></path><path d="M601 338L636 169L483 189Z" fill="#1d4e6b" stroke="#1d4e6b"></path><path d="M738 419L611 360L602 495Z" fill="#19435d" stroke="#19435d"></path><path d="M565 71L470 89L483 189Z" fill="#081a28" stroke="#081a28"></path><path d="M427 113L279 89L405 199Z" fill="#297ea6" stroke="#297ea6"></path><path d="M198 536L270 600L262 525Z" fill="#205a7a" stroke="#205a7a"></path><path d="M262 525L270 600L375 523Z" fill="#00101c" stroke="#00101c"></path><path d="M204 409L198 536L262 525Z" fill="#00101c" stroke="#00101c"></path><path d="M731 483L738 419L602 495Z" fill="#205a7a" stroke="#205a7a"></path><path d="M733 274L601 338L611 360Z" fill="#277297" stroke="#277297"></path><path d="M738 419L733 274L611 360Z" fill="#00101c" stroke="#00101c"></path><path d="M708 600L731 483L602 495Z" fill="#0c2435" stroke="#0c2435"></path><path d="M636 169L565 71L483 189Z" fill="#0c2435" stroke="#0c2435"></path><path d="M690 120L565 71L636 169Z" fill="#277297" stroke="#277297"></path><path d="M363 0L279 89L427 113Z" fill="#205a7a" stroke="#205a7a"></path><path d="M363 0L427 113L470 89Z" fill="#081a28" stroke="#081a28"></path><path d="M102 323L204 409L228 273Z" fill="#1d4e6b" stroke="#1d4e6b"></path><path d="M204 409L118 474L198 536Z" fill="#277297" stroke="#277297"></path><path d="M102 323L228 273L124 236Z" fill="#1d4e6b" stroke="#1d4e6b"></path><path d="M120 429L118 474L204 409Z" fill="#15384f" stroke="#15384f"></path><path d="M198 536L178 600L270 600Z" fill="#1d4e6b" stroke="#1d4e6b"></path><path d="M124 236L228 273L239 208Z" fill="#00101c" stroke="#00101c"></path><path d="M120 429L0 481L118 474Z" fill="#00101c" stroke="#00101c"></path><path d="M190 111L124 236L239 208Z" fill="#246688" stroke="#246688"></path><path d="M121 600L178 600L198 536Z" fill="#19435d" stroke="#19435d"></path><path d="M596 600L708 600L602 495Z" fill="#00101c" stroke="#00101c"></path><path d="M765 180L690 120L696 206Z" fill="#081a28" stroke="#081a28"></path><path d="M696 206L690 120L636 169Z" fill="#00101c" stroke="#00101c"></path><path d="M279 89L190 111L239 208Z" fill="#0c2435" stroke="#0c2435"></path><path d="M828 299L765 180L733 274Z" fill="#246688" stroke="#246688"></path><path d="M733 274L765 180L696 206Z" fill="#00101c" stroke="#00101c"></path><path d="M828 299L733 274L738 419Z" fill="#0c2435" stroke="#0c2435"></path><path d="M833 465L818 428L731 483Z" fill="#1d4e6b" stroke="#1d4e6b"></path><path d="M731 483L818 428L738 419Z" fill="#0c2435" stroke="#0c2435"></path><path d="M529 0L363 0L470 89Z" fill="#246688" stroke="#246688"></path><path d="M279 89L276 0L190 111Z" fill="#081a28" stroke="#081a28"></path><path d="M610 0L529 0L565 71Z" fill="#15384f" stroke="#15384f"></path><path d="M565 71L529 0L470 89Z" fill="#0c2435" stroke="#0c2435"></path><path d="M818 428L828 299L738 419Z" fill="#0c2435" stroke="#0c2435"></path><path d="M0 481L121 600L118 474Z" fill="#0c2435" stroke="#0c2435"></path><path d="M118 474L121 600L198 536Z" fill="#081a28" stroke="#081a28"></path><path d="M804 600L833 465L731 483Z" fill="#081a28" stroke="#081a28"></path><path d="M818 428L900 415L828 299Z" fill="#277297" stroke="#277297"></path><path d="M363 0L276 0L279 89Z" fill="#112e42" stroke="#112e42"></path><path d="M690 120L610 0L565 71Z" fill="#0c2435" stroke="#0c2435"></path><path d="M722 0L610 0L690 120Z" fill="#277297" stroke="#277297"></path><path d="M162 0L115 105L190 111Z" fill="#0c2435" stroke="#0c2435"></path><path d="M190 111L115 105L124 236Z" fill="#205a7a" stroke="#205a7a"></path><path d="M0 275L0 389L102 323Z" fill="#277297" stroke="#277297"></path><path d="M708 600L804 600L731 483Z" fill="#081a28" stroke="#081a28"></path><path d="M102 323L0 389L120 429Z" fill="#19435d" stroke="#19435d"></path><path d="M0 275L102 323L124 236Z" fill="#1d4e6b" stroke="#1d4e6b"></path><path d="M0 234L0 275L124 236Z" fill="#00101c" stroke="#00101c"></path><path d="M0 389L0 481L120 429Z" fill="#112e42" stroke="#112e42"></path><path d="M900 233L802 91L765 180Z" fill="#205a7a" stroke="#205a7a"></path><path d="M765 180L802 91L690 120Z" fill="#277297" stroke="#277297"></path><path d="M833 465L900 415L818 428Z" fill="#0c2435" stroke="#0c2435"></path><path d="M828 299L900 233L765 180Z" fill="#277297" stroke="#277297"></path><path d="M900 516L900 415L833 465Z" fill="#081a28" stroke="#081a28"></path><path d="M0 137L0 234L124 236Z" fill="#15384f" stroke="#15384f"></path><path d="M802 91L722 0L690 120Z" fill="#277297" stroke="#277297"></path><path d="M276 0L162 0L190 111Z" fill="#277297" stroke="#277297"></path><path d="M115 105L0 137L124 236Z" fill="#1d4e6b" stroke="#1d4e6b"></path><path d="M900 415L900 279L828 299Z" fill="#112e42" stroke="#112e42"></path><path d="M900 279L900 233L828 299Z" fill="#112e42" stroke="#112e42"></path><path d="M804 600L900 516L833 465Z" fill="#297ea6" stroke="#297ea6"></path><path d="M0 481L0 600L121 600Z" fill="#0c2435" stroke="#0c2435"></path><path d="M0 0L0 137L115 105Z" fill="#297ea6" stroke="#297ea6"></path><path d="M162 0L95 0L115 105Z" fill="#1d4e6b" stroke="#1d4e6b"></path><path d="M804 600L900 600L900 516Z" fill="#205a7a" stroke="#205a7a"></path><path d="M900 78L826 0L802 91Z" fill="#205a7a" stroke="#205a7a"></path><path d="M802 91L826 0L722 0Z" fill="#19435d" stroke="#19435d"></path><path d="M900 233L900 78L802 91Z" fill="#205a7a" stroke="#205a7a"></path><path d="M95 0L0 0L115 105Z" fill="#246688" stroke="#246688"></path><path d="M900 78L900 0L826 0Z" fill="#297ea6" stroke="#297ea6"></path></g></svg>